<svg xmlns="http://www.w3.org/2000/svg" viewBox="0 0 1200 675" role="img" aria-label="Animal and plant cell comparison">
  <defs>
    <radialGradient id="bg" cx="50%" cy="40%" r="70%">
      <stop offset="0%" stop-color="#124a38"/>
      <stop offset="55%" stop-color="#071126"/>
      <stop offset="100%" stop-color="#050711"/>
    </radialGradient>
    <filter id="glow">
      <feGaussianBlur stdDeviation="8" result="blur"/>
      <feMerge><feMergeNode in="blur"/><feMergeNode in="SourceGraphic"/></feMerge>
    </filter>
  </defs>
  <rect width="1200" height="675" fill="url(#bg)"/>
  <g opacity=".16" stroke="#fff">
    <path d="M0 90h1200M0 180h1200M0 270h1200M0 360h1200M0 450h1200M0 540h1200M0 630h1200"/>
    <path d="M120 0v675M240 0v675M360 0v675M480 0v675M600 0v675M720 0v675M840 0v675M960 0v675M1080 0v675"/>
  </g>
  <text x="90" y="88" fill="#d8f6ff" font-family="Arial, sans-serif" font-size="38" font-weight="900">Animal Cell</text>
  <text x="760" y="88" fill="#bbf7d0" font-family="Arial, sans-serif" font-size="38" font-weight="900">Plant Cell</text>
  <ellipse cx="320" cy="360" rx="230" ry="175" fill="#38bdf822" stroke="#7dd3fc" stroke-width="8" filter="url(#glow)"/>
  <circle cx="315" cy="335" r="58" fill="#c084fc"/>
  <ellipse cx="195" cy="402" rx="44" ry="24" fill="#fb7185"/>
  <ellipse cx="430" cy="285" rx="44" ry="24" fill="#fb7185"/>
  <circle cx="410" cy="430" r="17" fill="#facc15"/>
  <circle cx="250" cy="250" r="14" fill="#facc15"/>
  <text x="240" y="585" fill="#e0f2fe" font-family="Arial, sans-serif" font-size="24" font-weight="800">rounded flexible membrane</text>
  <rect x="705" y="180" width="350" height="350" rx="28" fill="#34d39918" stroke="#86efac" stroke-width="16" filter="url(#glow)"/>
  <rect x="742" y="217" width="276" height="276" rx="18" fill="#38bdf814" stroke="#bae6fd" stroke-width="5"/>
  <ellipse cx="882" cy="355" rx="100" ry="68" fill="#7dd3fc99"/>
  <circle cx="835" cy="300" r="50" fill="#c084fc"/>
  <ellipse cx="788" cy="266" rx="42" ry="22" fill="#22c55e"/>
  <ellipse cx="968" cy="426" rx="42" ry="22" fill="#22c55e"/>
  <ellipse cx="775" cy="435" rx="35" ry="18" fill="#fb7185"/>
  <text x="748" y="585" fill="#dcfce7" font-family="Arial, sans-serif" font-size="24" font-weight="800">box-like wall, vacuole, chloroplasts</text>
  <g font-family="Arial, sans-serif" font-size="22" font-weight="800">
    <text x="262" y="340" fill="#fff">nucleus</text>
    <text x="795" y="360" fill="#032029">large vacuole</text>
    <text x="730" y="165" fill="#bbf7d0">cell wall</text>
    <text x="960" y="415" fill="#dcfce7">chloroplast</text>
  </g>
</svg>
