<svg xmlns="http://www.w3.org/2000/svg" viewBox="0 0 1200 675" role="img" aria-label="English visual text analysis">
  <rect width="1200" height="675" fill="#10051f"/>
  <text x="70" y="78" fill="#f3e8ff" font-family="Arial, sans-serif" font-size="42" font-weight="900">Visual Text Analysis</text>
  <rect x="90" y="130" width="430" height="430" rx="28" fill="#fff"/>
  <rect x="130" y="170" width="350" height="190" rx="18" fill="#c084fc"/>
  <circle cx="215" cy="245" r="52" fill="#facc15"/>
  <rect x="290" y="210" width="150" height="35" rx="8" fill="#050711"/>
  <rect x="130" y="400" width="320" height="22" rx="8" fill="#CBD5E1"/>
  <rect x="130" y="440" width="260" height="22" rx="8" fill="#CBD5E1"/>
  <rect x="620" y="150" width="420" height="70" rx="16" fill="#ffffff12" stroke="#ffffff22"/>
  <rect x="620" y="260" width="420" height="70" rx="16" fill="#ffffff12" stroke="#ffffff22"/>
  <rect x="620" y="370" width="420" height="70" rx="16" fill="#ffffff12" stroke="#ffffff22"/>
  <rect x="620" y="480" width="420" height="70" rx="16" fill="#ffffff12" stroke="#ffffff22"/>
  <g font-family="Arial, sans-serif" font-weight="900">
    <text x="650" y="195" fill="#f0abfc" font-size="28">1. Technique</text>
    <text x="650" y="305" fill="#f0abfc" font-size="28">2. Evidence</text>
    <text x="650" y="415" fill="#f0abfc" font-size="28">3. Effect</text>
    <text x="650" y="525" fill="#f0abfc" font-size="28">4. Audience</text>
  </g>
</svg>
